<?xml version="1.0" encoding="UTF-8" standalone="no"?>
<svg
   xmlns:dc="http://purl.org/dc/elements/1.1/"
   xmlns:cc="http://creativecommons.org/ns#"
   xmlns:rdf="http://www.w3.org/1999/02/22-rdf-syntax-ns#"
   xmlns:svg="http://www.w3.org/2000/svg"
   xmlns="http://www.w3.org/2000/svg"
   xmlns:sodipodi="http://sodipodi.sourceforge.net/DTD/sodipodi-0.dtd"
   xmlns:inkscape="http://www.inkscape.org/namespaces/inkscape"
   width="512"
   height="512"
   id="svg2"
   version="1.1"
   sodipodi:docname="eduicon.svg"
   inkscape:version="0.92.2 5c3e80d, 2017-08-06"
   viewBox="0 0 511.99997 511.99997"
   inkscape:export-filename="/Users/pete/Desktop/appicon.png"
   inkscape:export-xdpi="192"
   inkscape:export-ydpi="192">
  <sodipodi:namedview
     pagecolor="#6d6c6a"
     bordercolor="#666666"
     borderopacity="1"
     objecttolerance="10"
     gridtolerance="10"
     guidetolerance="10"
     inkscape:pageopacity="0"
     inkscape:pageshadow="2"
     inkscape:window-width="1885"
     inkscape:window-height="1025"
     id="namedview7248"
     showgrid="true"
     inkscape:zoom="1.2291667"
     inkscape:cx="189.92972"
     inkscape:cy="247.91465"
     inkscape:window-x="1947"
     inkscape:window-y="0"
     inkscape:window-maximized="0"
     inkscape:current-layer="svg2"
     units="px"
     showguides="true"
     inkscape:guide-bbox="true"
     inkscape:snap-global="false"
     inkscape:snap-bbox="true">
    <inkscape:grid
       type="xygrid"
       id="grid8571" />
  </sodipodi:namedview>
  <defs
     id="defs4">
    <marker
       orient="auto"
       refY="0"
       refX="0"
       id="Arrow1Lstart"
       style="overflow:visible">
      <path
         id="path4354"
         d="M 0,0 5,-5 -12.5,0 5,5 Z"
         style="fill-rule:evenodd;stroke:#000000;stroke-width:1.00000003pt"
         transform="matrix(0.8,0,0,0.8,10,0)"
         inkscape:connector-curvature="0" />
    </marker>
    <inkscape:perspective
       id="perspective111"
       inkscape:persp3d-origin="200 : 70 : 1"
       inkscape:vp_z="400 : 105 : 1"
       inkscape:vp_y="0 : 1000 : 0"
       inkscape:vp_x="0 : 105 : 1"
       sodipodi:type="inkscape:persp3d" />
    <marker
       style="overflow:visible"
       id="Arrow1Lstart-3"
       refX="0"
       refY="0"
       orient="auto">
      <path
         transform="matrix(0.8,0,0,0.8,10,0)"
         style="fill-rule:evenodd;stroke:#000000;stroke-width:1.00000003pt"
         d="M 0,0 5,-5 -12.5,0 5,5 Z"
         id="path4354-8" />
    </marker>
  </defs>
  <metadata
     id="metadata7">
    <rdf:RDF>
      <cc:Work
         rdf:about="">
        <dc:format>image/svg+xml</dc:format>
        <dc:type
           rdf:resource="http://purl.org/dc/dcmitype/StillImage" />
        <dc:title></dc:title>
      </cc:Work>
    </rdf:RDF>
  </metadata>
  <g
     id="layer1"
     transform="translate(0,-540.36226)"
     style="display:inline" />
  <g
     id="layer3"
     transform="translate(0,-8.000057)" />
  <g
     style="fill:#ffffff;stroke:#ffffff"
     id="g14775"
     transform="matrix(0.7906631,0,0,0.7906631,53.590246,53.590246)" />
  <g
     style="fill:#ffffff;stroke:#ffffff"
     id="g14777"
     transform="matrix(0.7906631,0,0,0.7906631,53.590246,53.590246)" />
  <g
     style="fill:#ffffff;stroke:#ffffff"
     id="g14779"
     transform="matrix(0.7906631,0,0,0.7906631,53.590246,53.590246)" />
  <g
     style="fill:#ffffff;stroke:#ffffff"
     id="g14781"
     transform="matrix(0.7906631,0,0,0.7906631,53.590246,53.590246)" />
  <g
     style="fill:#ffffff;stroke:#ffffff"
     id="g14783"
     transform="matrix(0.7906631,0,0,0.7906631,53.590246,53.590246)" />
  <g
     style="fill:#ffffff;stroke:#ffffff"
     id="g14785"
     transform="matrix(0.7906631,0,0,0.7906631,53.590246,53.590246)" />
  <g
     style="fill:#ffffff;stroke:#ffffff"
     id="g14787"
     transform="matrix(0.7906631,0,0,0.7906631,53.590246,53.590246)" />
  <g
     style="fill:#ffffff;stroke:#ffffff"
     id="g14789"
     transform="matrix(0.7906631,0,0,0.7906631,53.590246,53.590246)" />
  <g
     style="fill:#ffffff;stroke:#ffffff"
     id="g14791"
     transform="matrix(0.7906631,0,0,0.7906631,53.590246,53.590246)" />
  <g
     style="fill:#ffffff;stroke:#ffffff"
     id="g14793"
     transform="matrix(0.7906631,0,0,0.7906631,53.590246,53.590246)" />
  <g
     style="fill:#ffffff;stroke:#ffffff"
     id="g14795"
     transform="matrix(0.7906631,0,0,0.7906631,53.590246,53.590246)" />
  <g
     style="fill:#ffffff;stroke:#ffffff"
     id="g14797"
     transform="matrix(0.7906631,0,0,0.7906631,53.590246,53.590246)" />
  <g
     style="fill:#ffffff;stroke:#ffffff"
     id="g14799"
     transform="matrix(0.7906631,0,0,0.7906631,53.590246,53.590246)" />
  <g
     style="fill:#ffffff;stroke:#ffffff"
     id="g14801"
     transform="matrix(0.7906631,0,0,0.7906631,53.590246,53.590246)" />
  <g
     style="fill:#ffffff;stroke:#ffffff"
     id="g14803"
     transform="matrix(0.7906631,0,0,0.7906631,53.590246,53.590246)" />
  <g
     style="display:inline"
     transform="matrix(7.5084743,0,0,7.5084743,-2804.6101,-7455.2616)"
     id="g20110" />
  <g
     transform="matrix(7.5084743,0,0,7.5084743,-2804.6101,-3458.0337)"
     id="g20168" />
  <g
     id="g20172"
     transform="matrix(7.5084743,0,0,7.5084743,-2801.3559,-6840.2108)"
     style="display:inline" />
  <g
     id="g20230"
     transform="matrix(7.5084743,0,0,7.5084743,-2801.3559,-2842.9829)" />
  <g
     style="fill:#ffffff;stroke:#ffffff;stroke-width:2.23484397;stroke-miterlimit:4;stroke-dasharray:none"
     id="g24010"
     transform="matrix(2.8127014,0,0,2.8127014,-337.75522,69.902529)" />
  <g
     style="fill:#ffffff;stroke:#ffffff;stroke-width:2.23484397;stroke-miterlimit:4;stroke-dasharray:none"
     id="g24012"
     transform="matrix(2.8127014,0,0,2.8127014,-337.75522,69.902529)" />
  <g
     style="fill:#ffffff;stroke:#ffffff;stroke-width:2.23484397;stroke-miterlimit:4;stroke-dasharray:none"
     id="g24014"
     transform="matrix(2.8127014,0,0,2.8127014,-337.75522,69.902529)" />
  <g
     style="fill:#ffffff;stroke:#ffffff;stroke-width:2.23484397;stroke-miterlimit:4;stroke-dasharray:none"
     id="g24016"
     transform="matrix(2.8127014,0,0,2.8127014,-337.75522,69.902529)" />
  <g
     style="fill:#ffffff;stroke:#ffffff;stroke-width:2.23484397;stroke-miterlimit:4;stroke-dasharray:none"
     id="g24018"
     transform="matrix(2.8127014,0,0,2.8127014,-337.75522,69.902529)" />
  <g
     style="fill:#ffffff;stroke:#ffffff;stroke-width:2.23484397;stroke-miterlimit:4;stroke-dasharray:none"
     id="g24020"
     transform="matrix(2.8127014,0,0,2.8127014,-337.75522,69.902529)" />
  <g
     style="fill:#ffffff;stroke:#ffffff;stroke-width:2.23484397;stroke-miterlimit:4;stroke-dasharray:none"
     id="g24022"
     transform="matrix(2.8127014,0,0,2.8127014,-337.75522,69.902529)" />
  <g
     style="fill:#ffffff;stroke:#ffffff;stroke-width:2.23484397;stroke-miterlimit:4;stroke-dasharray:none"
     id="g24024"
     transform="matrix(2.8127014,0,0,2.8127014,-337.75522,69.902529)" />
  <g
     style="fill:#ffffff;stroke:#ffffff;stroke-width:2.23484397;stroke-miterlimit:4;stroke-dasharray:none"
     id="g24026"
     transform="matrix(2.8127014,0,0,2.8127014,-337.75522,69.902529)" />
  <g
     style="fill:#ffffff;stroke:#ffffff;stroke-width:2.23484397;stroke-miterlimit:4;stroke-dasharray:none"
     id="g24028"
     transform="matrix(2.8127014,0,0,2.8127014,-337.75522,69.902529)" />
  <g
     style="fill:#ffffff;stroke:#ffffff;stroke-width:2.23484397;stroke-miterlimit:4;stroke-dasharray:none"
     id="g24030"
     transform="matrix(2.8127014,0,0,2.8127014,-337.75522,69.902529)" />
  <g
     style="fill:#ffffff;stroke:#ffffff;stroke-width:2.23484397;stroke-miterlimit:4;stroke-dasharray:none"
     id="g24032"
     transform="matrix(2.8127014,0,0,2.8127014,-337.75522,69.902529)" />
  <g
     style="fill:#ffffff;stroke:#ffffff;stroke-width:2.23484397;stroke-miterlimit:4;stroke-dasharray:none"
     id="g24034"
     transform="matrix(2.8127014,0,0,2.8127014,-337.75522,69.902529)" />
  <g
     style="fill:#ffffff;stroke:#ffffff;stroke-width:2.23484397;stroke-miterlimit:4;stroke-dasharray:none"
     id="g24036"
     transform="matrix(2.8127014,0,0,2.8127014,-337.75522,69.902529)" />
  <g
     style="fill:#ffffff;stroke:#ffffff;stroke-width:2.23484397;stroke-miterlimit:4;stroke-dasharray:none"
     id="g24038"
     transform="matrix(2.8127014,0,0,2.8127014,-337.75522,69.902529)" />
  <rect
     ry="66.437012"
     y="9.2339478"
     x="9.2339478"
     height="493.5321"
     width="493.5321"
     id="rect17335"
     style="display:inline;fill:#ffcc00;fill-opacity:1;stroke:#ffffff;stroke-width:18.46800041;stroke-miterlimit:4;stroke-dasharray:none;stroke-opacity:1" />
  <path
     style="fill:#ff6600;stroke:#ffffff;stroke-width:6.29705858;stroke-linecap:round;stroke-linejoin:round;stroke-miterlimit:4;stroke-dasharray:none;stroke-opacity:1"
     d="M 182.82619,426.20132 H 341.53778 L 278.05314,38.945036 H 233.6139 L 176.47772,426.20132 Z"
     id="path23173"
     inkscape:connector-curvature="0" />
  <path
     inkscape:connector-curvature="0"
     id="rect23169"
     d="m 156.88628,422.39224 h 196.62478 c 5.32477,0 9.61149,4.28674 9.61149,9.61151 v 14.90804 c 0,5.32477 -4.28672,9.61151 -9.61149,9.61151 H 156.88628 c -5.32477,0 -9.61149,-4.28674 -9.61149,-9.61151 v -14.90804 c 0,-5.32477 4.28672,-9.61151 9.61149,-9.61151 z"
     style="fill:#ff6600;fill-opacity:1;fill-rule:nonzero;stroke:#ffffff;stroke-width:6.34846354;stroke-linecap:round;stroke-miterlimit:4;stroke-dasharray:none;stroke-opacity:1" />
  <path
     inkscape:connector-curvature="0"
     id="rect22925"
     d="m 144.18935,438.89825 h 222.01864 c 5.32477,0 9.61149,4.28673 9.61149,9.61151 v 14.90803 c 0,5.32478 -4.28672,9.61151 -9.61149,9.61151 H 144.18935 c -5.32476,0 -9.61149,-4.28673 -9.61149,-9.61151 v -14.90803 c 0,-5.32478 4.28673,-9.61151 9.61149,-9.61151 z"
     style="fill:#ff6600;fill-opacity:1;fill-rule:nonzero;stroke:#ffffff;stroke-width:6.34846354;stroke-linecap:round;stroke-miterlimit:4;stroke-dasharray:none;stroke-opacity:1" />
  <path
     style="fill:#ffffff;stroke:none;stroke-width:0.63484639px;stroke-linecap:butt;stroke-linejoin:miter;stroke-opacity:1"
     d="m 195.52311,292.88358 h 126.96928 l 12.69692,76.18157 H 182.82619 Z"
     id="path23197"
     inkscape:connector-curvature="0" />
  <path
     style="fill:#ffffff;stroke:none;stroke-width:0.7175898px;stroke-linecap:butt;stroke-linejoin:miter;stroke-opacity:1"
     d="m 224.0912,83.064261 h 63.48464 l 12.69692,97.334099 H 214.5685 Z"
     id="path23201"
     inkscape:connector-curvature="0" />
  <g
     id="g24219"
     transform="matrix(1.3168974,0,0,1.364782,-60.634583,-148.21699)"
     style="stroke:#ffcc00;stroke-opacity:1">
    <path
       style="fill:#2b547e;fill-opacity:1;fill-rule:nonzero;stroke:#ffcc00;stroke-width:36;stroke-linecap:round;stroke-linejoin:round;stroke-miterlimit:4;stroke-dasharray:none;stroke-opacity:1"
       id="path24133"
       sodipodi:type="arc"
       sodipodi:cx="256.67798"
       sodipodi:cy="-263.66544"
       sodipodi:rx="114.01704"
       sodipodi:ry="122.96622"
       sodipodi:start="3.3788826"
       sodipodi:end="4.1828204"
       sodipodi:open="true"
       d="m 145.85586,-292.57103 a 114.01704,122.96622 0 0 1 53.22515,-77.21734"
       transform="scale(1,-1)" />
    <rect
       style="fill:#2b547e;fill-opacity:1;fill-rule:nonzero;stroke:#ffcc00;stroke-width:26.94124031;stroke-linecap:round;stroke-linejoin:round;stroke-miterlimit:4;stroke-dasharray:none;stroke-opacity:1"
       id="rect24135"
       width="77.912445"
       height="9.0587597"
       x="126.31812"
       y="367.47067"
       ry="3.2749193" />
  </g>
  <g
     transform="matrix(-1.3282246,0,0,1.2950438,575.85825,-122.40864)"
     id="g24225"
     style="stroke:#ffcc00;stroke-opacity:1">
    <path
       transform="scale(1,-1)"
       d="m 145.85586,-292.57103 a 114.01704,122.96622 0 0 1 53.22515,-77.21734"
       sodipodi:open="true"
       sodipodi:end="4.1828204"
       sodipodi:start="3.3788826"
       sodipodi:ry="122.96622"
       sodipodi:rx="114.01704"
       sodipodi:cy="-263.66544"
       sodipodi:cx="256.67798"
       sodipodi:type="arc"
       id="path24221"
       style="fill:#2b547e;fill-opacity:1;fill-rule:nonzero;stroke:#ffcc00;stroke-width:36;stroke-linecap:round;stroke-linejoin:round;stroke-miterlimit:4;stroke-dasharray:none;stroke-opacity:1" />
    <rect
       ry="3.2749193"
       y="367.47067"
       x="126.31812"
       height="9.0587597"
       width="77.912445"
       id="rect24223"
       style="fill:#2b547e;fill-opacity:1;fill-rule:nonzero;stroke:#ffcc00;stroke-width:26.94124031;stroke-linecap:round;stroke-linejoin:round;stroke-miterlimit:4;stroke-dasharray:none;stroke-opacity:1" />
  </g>
  <path
     transform="scale(1,-1)"
     d="M 365.44779,-214.51449 A 114.01704,122.96622 0 0 1 256.5335,-128.50601 114.01704,122.96622 0 0 1 147.85574,-214.86179"
     sodipodi:open="true"
     sodipodi:end="2.8392824"
     sodipodi:start="0.30527015"
     sodipodi:ry="122.96622"
     sodipodi:rx="114.01704"
     sodipodi:cy="-251.47209"
     sodipodi:cx="256.70224"
     sodipodi:type="arc"
     id="path24192"
     style="fill:none;fill-opacity:1;fill-rule:nonzero;stroke:#ffcc00;stroke-width:52;stroke-linecap:round;stroke-linejoin:round;stroke-miterlimit:4;stroke-dasharray:none;stroke-opacity:1" />
  <g
     id="g24125"
     transform="translate(583.86125,-85.569951)"
     style="stroke:#000000">
    <path
       transform="scale(1,-1)"
       d="m -268.36922,-442.05065 a 114.01704,122.96622 0 0 1 50.60715,138.69838 114.01704,122.96622 0 0 1 -110.5635,89.42918 114.01704,122.96622 0 0 1 -109.28824,-91.23423 114.01704,122.96622 0 0 1 52.55923,-137.85135"
       sodipodi:open="true"
       sodipodi:end="4.1828204"
       sodipodi:start="5.2571828"
       sodipodi:ry="122.96622"
       sodipodi:rx="114.01704"
       sodipodi:cy="-336.88574"
       sodipodi:cx="-327.45761"
       sodipodi:type="arc"
       id="path24116"
       style="fill:none;fill-opacity:1;fill-rule:nonzero;stroke:#000000;stroke-width:36;stroke-linecap:round;stroke-linejoin:round;stroke-miterlimit:4;stroke-dasharray:none;stroke-opacity:1" />
    <rect
       ry="3.2749193"
       y="440.69101"
       x="-457.81747"
       height="9.0587597"
       width="77.912445"
       id="rect24118"
       style="fill:none;fill-opacity:1;fill-rule:nonzero;stroke:#000000;stroke-width:26.94124031;stroke-linecap:round;stroke-linejoin:round;stroke-miterlimit:4;stroke-dasharray:none;stroke-opacity:1" />
    <rect
       style="fill:none;fill-opacity:1;fill-rule:nonzero;stroke:#000000;stroke-width:26.94124031;stroke-linecap:round;stroke-linejoin:round;stroke-miterlimit:4;stroke-dasharray:none;stroke-opacity:1"
       id="rect24120"
       width="77.912445"
       height="9.0587597"
       x="-275.81747"
       y="440.69101"
       ry="3.2749193" />
  </g>
</svg>
